<svg width="17" height="17" viewBox="0 0 17 17" fill="none" xmlns="http://www.w3.org/2000/svg">
<g clip-path="url(#clip0_40_268)">
<path fill-rule="evenodd" clip-rule="evenodd" d="M1.30769 0H5.88461C6.60683 0 7.19231 0.585474 7.19231 1.30769V5.88461C7.19231 6.60683 6.60683 7.19231 5.88461 7.19231H1.30769C0.585474 7.19231 0 6.60683 0 5.88461V1.30769C0 0.585474 0.585474 0 1.30769 0ZM11.1154 9.80766H15.6923C16.4145 9.80766 17 10.3931 17 11.1154V15.6923C17 16.4145 16.4145 17 15.6923 17H11.1154C10.3931 17 9.80766 16.4145 9.80766 15.6923V11.1154C9.80766 10.3931 10.3931 9.80766 11.1154 9.80766ZM5.88461 9.80766H1.30769C0.585474 9.80766 0 10.3931 0 11.1154V15.6923C0 16.4145 0.585474 17 1.30769 17H5.88461C6.60683 17 7.19231 16.4145 7.19231 15.6923V11.1154C7.19231 10.3931 6.60683 9.80766 5.88461 9.80766ZM13.0666 0C13.5696 0 13.9773 0.40774 13.9773 0.910714V3.01474H16.081C16.5841 3.01474 16.9917 3.42248 16.9917 3.92546C16.9917 4.42843 16.5841 4.83617 16.081 4.83617H13.9773V6.94015C13.9773 7.44312 13.5696 7.85087 13.0666 7.85087C12.5636 7.85087 12.1559 7.44312 12.1559 6.94015V4.83617H10.0517C9.54868 4.83617 9.14094 4.42843 9.14094 3.92546C9.14094 3.42248 9.54868 3.01474 10.0517 3.01474H12.1559V0.910714C12.1559 0.40774 12.5636 0 13.0666 0Z" fill="#FF4A17" fill-opacity="0.5"/>
</g>
<defs>
<clipPath id="clip0_40_268">
<rect width="17" height="17" fill="white"/>
</clipPath>
</defs>
</svg>
