<svg width="28" height="27" viewBox="0 0 28 27" fill="none" xmlns="http://www.w3.org/2000/svg">
<ellipse cx="14" cy="13.5" rx="14" ry="13.5" fill="white"/>
<path d="M27.5 13.5C27.5 20.6627 21.4731 26.5 14 26.5C6.52686 26.5 0.5 20.6627 0.5 13.5C0.5 6.33728 6.52686 0.5 14 0.5C21.4731 0.5 27.5 6.33728 27.5 13.5Z" stroke="black" stroke-opacity="0.5"/>
<path d="M10.8 9.08V10.08C11.1556 10.08 11.4845 9.89109 11.6638 9.58387L10.8 9.08ZM11.92 7.16V6.16C11.5643 6.16 11.2354 6.34891 11.0562 6.65613L11.92 7.16ZM16.08 7.16L16.9438 6.65613C16.7645 6.34891 16.4356 6.16 16.08 6.16V7.16ZM17.2 9.08L16.3362 9.58387C16.5154 9.89109 16.8443 10.08 17.2 10.08V9.08ZM8.59998 17.24V10.68H6.59998V17.24H8.59998ZM9.19998 10.08H10.8V8.08H9.19998V10.08ZM11.6638 9.58387L12.7838 7.66387L11.0562 6.65613L9.9362 8.57613L11.6638 9.58387ZM11.92 8.16H16.08V6.16H11.92V8.16ZM15.2162 7.66387L16.3362 9.58387L18.0638 8.57613L16.9438 6.65613L15.2162 7.66387ZM17.2 10.08H18.8V8.08H17.2V10.08ZM19.4 10.68V17.24H21.4V10.68H19.4ZM19.4 17.24C19.4 17.5714 19.1313 17.84 18.8 17.84V19.84C20.2359 19.84 21.4 18.6759 21.4 17.24H19.4ZM18.8 10.08C19.1313 10.08 19.4 10.3486 19.4 10.68H21.4C21.4 9.24406 20.2359 8.08 18.8 8.08V10.08ZM8.59998 10.68C8.59998 10.3486 8.8686 10.08 9.19998 10.08V8.08C7.76404 8.08 6.59998 9.24406 6.59998 10.68H8.59998ZM9.19998 17.84C8.8686 17.84 8.59998 17.5714 8.59998 17.24H6.59998C6.59998 18.6759 7.76404 19.84 9.19998 19.84V17.84ZM15.4 13.56C15.4 14.3332 14.7732 14.96 14 14.96V16.96C15.8777 16.96 17.4 15.4378 17.4 13.56H15.4ZM14 14.96C13.2268 14.96 12.6 14.3332 12.6 13.56H10.6C10.6 15.4378 12.1222 16.96 14 16.96V14.96ZM12.6 13.56C12.6 12.7868 13.2268 12.16 14 12.16V10.16C12.1222 10.16 10.6 11.6822 10.6 13.56H12.6ZM14 12.16C14.7732 12.16 15.4 12.7868 15.4 13.56H17.4C17.4 11.6822 15.8777 10.16 14 10.16V12.16ZM18.8 17.84H9.19998V19.84H18.8V17.84Z" fill="black" fill-opacity="0.5"/>
</svg>
