<svg width="16" height="16" viewBox="0 0 16 16" fill="none" xmlns="http://www.w3.org/2000/svg">
<path d="M3.62053 7.97872L7.40592 10.2346C7.72132 10.4225 8.11437 10.4225 8.42978 10.2346L14.4082 6.6718C14.7336 6.47789 14.7336 6.00668 14.4082 5.81277L8.42978 2.24999C8.11437 2.06203 7.72132 2.06203 7.40592 2.24999L1.42749 5.81277C1.1021 6.00668 1.1021 6.47789 1.42749 6.6718L3.62053 7.97872ZM3.62053 7.97872L3.62053 11.9579C3.62053 12.3 3.79539 12.6183 4.08408 12.8018L6.88344 14.5812C7.51818 14.9847 8.32563 14.998 8.97327 14.6155L12.0523 12.7974C12.3569 12.6175 12.5438 12.2901 12.5438 11.9363L12.5438 7.97872" stroke="black" stroke-opacity="0.5" stroke-width="2"/>
</svg>
