<svg width="22" height="22" viewBox="0 0 22 22" fill="none" xmlns="http://www.w3.org/2000/svg">
<path d="M7.00001 5V4.2C7.00001 2.43 7.00001 1 10.2 1H11.8C15 1 15 2.43 15 4.2V5M13 13.02C13 13.01 13 13.01 13 13V12C13 11 13 11 12 11H10C9.00001 11 9.00001 11 9.00001 12V13.03M13 13.02C13 14.11 12.99 15 11 15C9.02001 15 9.00001 14.12 9.00001 13.03M13 13.02C15.7 12.68 18.34 11.68 20.65 10M9.00001 13.03C6.41001 12.74 3.87001 11.81 1.62001 10.27M7.00001 21H15C19.02 21 19.74 19.39 19.95 17.43L20.7 9.43C20.97 6.99 20.27 5 16 5H6.00001C1.73001 5 1.03001 6.99 1.30001 9.43L2.05001 17.43C2.26001 19.39 2.98001 21 7.00001 21Z" stroke="#FF4A17" stroke-opacity="0.5" stroke-width="1.5" stroke-miterlimit="10" stroke-linecap="round" stroke-linejoin="round"/>
</svg>
