<svg width="196" height="118" viewBox="0 0 196 118" fill="none" xmlns="http://www.w3.org/2000/svg">
<path d="M23.4098 84.4062V110H17.6969L8.02891 93.459V110H2.29844V84.4062H8.02891L17.7145 100.947V84.4062H23.4098ZM38.1571 105.465V97.3086C38.1571 96.7344 38.0692 96.2422 37.8934 95.832C37.7177 95.4219 37.4423 95.0996 37.0673 94.8652C36.6923 94.6309 36.2059 94.5137 35.6083 94.5137C35.1044 94.5137 34.6649 94.6016 34.2899 94.7773C33.9266 94.9531 33.6454 95.2051 33.4462 95.5332C33.2587 95.8613 33.1649 96.2656 33.1649 96.7461H27.6805C27.6805 95.8906 27.8739 95.0938 28.2606 94.3555C28.6473 93.6172 29.1981 92.9668 29.913 92.4043C30.6395 91.8418 31.5067 91.4082 32.5145 91.1035C33.5223 90.7871 34.6532 90.6289 35.9071 90.6289C37.3954 90.6289 38.7196 90.8809 39.8798 91.3848C41.0516 91.877 41.9774 92.6211 42.6571 93.6172C43.3368 94.6016 43.6766 95.8438 43.6766 97.3438V105.307C43.6766 106.455 43.7411 107.357 43.87 108.014C44.0106 108.658 44.2098 109.221 44.4677 109.701V110H38.9305C38.6727 109.449 38.4794 108.77 38.3505 107.961C38.2216 107.141 38.1571 106.309 38.1571 105.465ZM38.8427 98.3984L38.8778 101.422H36.1532C35.5438 101.422 35.0165 101.498 34.5712 101.65C34.1376 101.803 33.786 102.014 33.5165 102.283C33.247 102.541 33.0477 102.846 32.9188 103.197C32.8016 103.537 32.743 103.912 32.743 104.322C32.743 104.709 32.8368 105.061 33.0243 105.377C33.2118 105.682 33.4696 105.922 33.7977 106.098C34.1259 106.273 34.5067 106.361 34.9403 106.361C35.6552 106.361 36.2645 106.221 36.7684 105.939C37.2841 105.658 37.6825 105.318 37.9638 104.92C38.245 104.51 38.3856 104.129 38.3856 103.777L39.704 106.062C39.493 106.531 39.2352 107.018 38.9305 107.521C38.6259 108.014 38.2391 108.477 37.7704 108.91C37.3016 109.332 36.7333 109.678 36.0653 109.947C35.4091 110.217 34.618 110.352 33.6923 110.352C32.497 110.352 31.413 110.111 30.4403 109.631C29.4677 109.139 28.6884 108.465 28.1024 107.609C27.5282 106.754 27.2411 105.77 27.2411 104.656C27.2411 103.66 27.4227 102.775 27.786 102.002C28.1493 101.229 28.6942 100.572 29.4208 100.033C30.1591 99.4941 31.0848 99.0898 32.1981 98.8203C33.3114 98.5391 34.6122 98.3984 36.1005 98.3984H38.8427ZM58.1252 104.709C58.1252 104.357 58.0138 104.047 57.7912 103.777C57.5802 103.508 57.1935 103.262 56.631 103.039C56.0802 102.816 55.3009 102.594 54.2931 102.371C53.3439 102.172 52.4591 101.914 51.6388 101.598C50.8185 101.27 50.1037 100.877 49.4943 100.42C48.8849 99.9512 48.4103 99.4004 48.0705 98.7676C47.7306 98.123 47.5607 97.3906 47.5607 96.5703C47.5607 95.7734 47.7306 95.0176 48.0705 94.3027C48.422 93.5879 48.9259 92.9551 49.5822 92.4043C50.2502 91.8535 51.0588 91.4199 52.008 91.1035C52.9689 90.7871 54.0588 90.6289 55.2775 90.6289C56.9533 90.6289 58.4005 90.8926 59.6193 91.4199C60.838 91.9355 61.7755 92.6621 62.4318 93.5996C63.088 94.5254 63.4162 95.5859 63.4162 96.7812H57.9318C57.9318 96.2891 57.838 95.8613 57.6505 95.498C57.463 95.1348 57.1759 94.8535 56.7892 94.6543C56.4025 94.4434 55.8927 94.3379 55.2599 94.3379C54.7677 94.3379 54.3341 94.4258 53.9591 94.6016C53.5959 94.7656 53.3088 94.9941 53.0978 95.2871C52.8986 95.5801 52.799 95.9199 52.799 96.3066C52.799 96.5762 52.8576 96.8223 52.9748 97.0449C53.1037 97.2559 53.297 97.4551 53.5548 97.6426C53.8244 97.8184 54.1701 97.9766 54.592 98.1172C55.0255 98.2578 55.5529 98.3926 56.174 98.5215C57.4982 98.7676 58.7052 99.1133 59.7951 99.5586C60.8966 100.004 61.7755 100.619 62.4318 101.404C63.0998 102.189 63.4338 103.227 63.4338 104.516C63.4338 105.359 63.2404 106.133 62.8537 106.836C62.4787 107.539 61.9338 108.154 61.2189 108.682C60.5041 109.209 59.6486 109.619 58.6525 109.912C57.6564 110.205 56.5314 110.352 55.2775 110.352C53.4845 110.352 51.967 110.029 50.7248 109.385C49.4826 108.74 48.5451 107.932 47.9123 106.959C47.2912 105.975 46.9806 104.967 46.9806 103.936H52.131C52.1545 104.568 52.3127 105.084 52.6056 105.482C52.9103 105.881 53.3029 106.174 53.7834 106.361C54.2638 106.537 54.8029 106.625 55.4005 106.625C55.9982 106.625 56.4963 106.543 56.8947 106.379C57.2931 106.215 57.5978 105.992 57.8088 105.711C58.0197 105.418 58.1252 105.084 58.1252 104.709ZM72.9956 90.9805V110H67.4936V90.9805H72.9956ZM67.1596 86.0586C67.1596 85.2617 67.4409 84.6113 68.0034 84.1074C68.5659 83.5918 69.3041 83.334 70.2182 83.334C71.1323 83.334 71.8706 83.5918 72.4331 84.1074C73.0073 84.6113 73.2944 85.2617 73.2944 86.0586C73.2944 86.8438 73.0073 87.4941 72.4331 88.0098C71.8706 88.5137 71.1323 88.7656 70.2182 88.7656C69.3041 88.7656 68.5659 88.5137 68.0034 88.0098C67.4409 87.4941 67.1596 86.8438 67.1596 86.0586ZM93.7363 84.4062V110H88.0234V84.4062H93.7363ZM108.923 104.709C108.923 104.357 108.812 104.047 108.589 103.777C108.378 103.508 107.991 103.262 107.429 103.039C106.878 102.816 106.099 102.594 105.091 102.371C104.142 102.172 103.257 101.914 102.437 101.598C101.616 101.27 100.902 100.877 100.292 100.42C99.6829 99.9512 99.2083 99.4004 98.8684 98.7676C98.5286 98.123 98.3587 97.3906 98.3587 96.5703C98.3587 95.7734 98.5286 95.0176 98.8684 94.3027C99.22 93.5879 99.7239 92.9551 100.38 92.4043C101.048 91.8535 101.857 91.4199 102.806 91.1035C103.767 90.7871 104.857 90.6289 106.075 90.6289C107.751 90.6289 109.199 90.8926 110.417 91.4199C111.636 91.9355 112.574 92.6621 113.23 93.5996C113.886 94.5254 114.214 95.5859 114.214 96.7812H108.73C108.73 96.2891 108.636 95.8613 108.449 95.498C108.261 95.1348 107.974 94.8535 107.587 94.6543C107.2 94.4434 106.691 94.3379 106.058 94.3379C105.566 94.3379 105.132 94.4258 104.757 94.6016C104.394 94.7656 104.107 94.9941 103.896 95.2871C103.697 95.5801 103.597 95.9199 103.597 96.3066C103.597 96.5762 103.656 96.8223 103.773 97.0449C103.902 97.2559 104.095 97.4551 104.353 97.6426C104.622 97.8184 104.968 97.9766 105.39 98.1172C105.824 98.2578 106.351 98.3926 106.972 98.5215C108.296 98.7676 109.503 99.1133 110.593 99.5586C111.695 100.004 112.574 100.619 113.23 101.404C113.898 102.189 114.232 103.227 114.232 104.516C114.232 105.359 114.038 106.133 113.652 106.836C113.277 107.539 112.732 108.154 112.017 108.682C111.302 109.209 110.447 109.619 109.45 109.912C108.454 110.205 107.329 110.352 106.075 110.352C104.283 110.352 102.765 110.029 101.523 109.385C100.281 108.74 99.343 107.932 98.7102 106.959C98.0891 105.975 97.7786 104.967 97.7786 103.936H102.929C102.952 104.568 103.111 105.084 103.404 105.482C103.708 105.881 104.101 106.174 104.581 106.361C105.062 106.537 105.601 106.625 106.199 106.625C106.796 106.625 107.294 106.543 107.693 106.379C108.091 106.215 108.396 105.992 108.607 105.711C108.818 105.418 108.923 105.084 108.923 104.709ZM123.512 94.6367V117.312H118.028V90.9805H123.143L123.512 94.6367ZM135.378 100.279V100.648C135.378 102.031 135.219 103.314 134.903 104.498C134.586 105.67 134.112 106.695 133.479 107.574C132.858 108.453 132.09 109.139 131.176 109.631C130.262 110.111 129.202 110.352 127.995 110.352C126.846 110.352 125.85 110.111 125.006 109.631C124.174 109.139 123.471 108.459 122.897 107.592C122.335 106.713 121.878 105.711 121.526 104.586C121.186 103.449 120.922 102.236 120.735 100.947V100.227C120.922 98.8555 121.192 97.584 121.544 96.4121C121.895 95.2402 122.352 94.2266 122.915 93.3711C123.477 92.5039 124.174 91.8301 125.006 91.3496C125.838 90.8691 126.829 90.6289 127.977 90.6289C129.172 90.6289 130.233 90.8574 131.159 91.3145C132.085 91.7715 132.858 92.4277 133.479 93.2832C134.112 94.127 134.586 95.1406 134.903 96.3242C135.219 97.5078 135.378 98.8262 135.378 100.279ZM129.876 100.648V100.279C129.876 99.5059 129.817 98.7969 129.7 98.1523C129.583 97.4961 129.395 96.9277 129.137 96.4473C128.879 95.9551 128.54 95.5742 128.118 95.3047C127.696 95.0352 127.18 94.9004 126.571 94.9004C125.915 94.9004 125.358 95.0059 124.901 95.2168C124.444 95.4277 124.075 95.7383 123.794 96.1484C123.512 96.5469 123.307 97.0391 123.178 97.625C123.061 98.2109 122.997 98.8789 122.985 99.6289V101.562C122.997 102.441 123.12 103.227 123.354 103.918C123.6 104.598 123.981 105.131 124.497 105.518C125.024 105.893 125.727 106.08 126.606 106.08C127.227 106.08 127.743 105.945 128.153 105.676C128.575 105.395 128.909 105.002 129.155 104.498C129.413 103.994 129.594 103.414 129.7 102.758C129.817 102.102 129.876 101.398 129.876 100.648ZM149.088 105.465V97.3086C149.088 96.7344 149 96.2422 148.824 95.832C148.648 95.4219 148.373 95.0996 147.998 94.8652C147.623 94.6309 147.137 94.5137 146.539 94.5137C146.035 94.5137 145.596 94.6016 145.221 94.7773C144.857 94.9531 144.576 95.2051 144.377 95.5332C144.189 95.8613 144.096 96.2656 144.096 96.7461H138.611C138.611 95.8906 138.805 95.0938 139.191 94.3555C139.578 93.6172 140.129 92.9668 140.844 92.4043C141.57 91.8418 142.437 91.4082 143.445 91.1035C144.453 90.7871 145.584 90.6289 146.838 90.6289C148.326 90.6289 149.65 90.8809 150.81 91.3848C151.982 91.877 152.908 92.6211 153.588 93.6172C154.267 94.6016 154.607 95.8438 154.607 97.3438V105.307C154.607 106.455 154.672 107.357 154.801 108.014C154.941 108.658 155.14 109.221 155.398 109.701V110H149.861C149.603 109.449 149.41 108.77 149.281 107.961C149.152 107.141 149.088 106.309 149.088 105.465ZM149.773 98.3984L149.808 101.422H147.084C146.474 101.422 145.947 101.498 145.502 101.65C145.068 101.803 144.717 102.014 144.447 102.283C144.178 102.541 143.978 102.846 143.849 103.197C143.732 103.537 143.674 103.912 143.674 104.322C143.674 104.709 143.767 105.061 143.955 105.377C144.142 105.682 144.4 105.922 144.728 106.098C145.056 106.273 145.437 106.361 145.871 106.361C146.586 106.361 147.195 106.221 147.699 105.939C148.215 105.658 148.613 105.318 148.894 104.92C149.176 104.51 149.316 104.129 149.316 103.777L150.635 106.062C150.424 106.531 150.166 107.018 149.861 107.521C149.556 108.014 149.17 108.477 148.701 108.91C148.232 109.332 147.664 109.678 146.996 109.947C146.34 110.217 145.549 110.352 144.623 110.352C143.428 110.352 142.344 110.111 141.371 109.631C140.398 109.139 139.619 108.465 139.033 107.609C138.459 106.754 138.172 105.77 138.172 104.656C138.172 103.66 138.353 102.775 138.717 102.002C139.08 101.229 139.625 100.572 140.351 100.033C141.09 99.4941 142.015 99.0898 143.129 98.8203C144.242 98.5391 145.543 98.3984 147.031 98.3984H149.773ZM164.31 95.041V110H158.808V90.9805H163.976L164.31 95.041ZM163.589 99.8223L162.218 99.8574C162.218 98.4277 162.394 97.1445 162.745 96.0078C163.097 94.8711 163.595 93.9043 164.239 93.1074C164.896 92.2988 165.675 91.6836 166.577 91.2617C167.491 90.8398 168.499 90.6289 169.601 90.6289C170.491 90.6289 171.306 90.7578 172.044 91.0156C172.782 91.2734 173.415 91.6895 173.943 92.2637C174.482 92.8262 174.892 93.5762 175.173 94.5137C175.454 95.4395 175.595 96.582 175.595 97.9414V110H170.075V97.9238C170.075 97.127 169.964 96.5117 169.741 96.0781C169.519 95.6445 169.191 95.3398 168.757 95.1641C168.335 94.9883 167.819 94.9004 167.21 94.9004C166.566 94.9004 166.015 95.0293 165.558 95.2871C165.101 95.5332 164.726 95.8789 164.433 96.3242C164.14 96.7695 163.923 97.291 163.782 97.8887C163.653 98.4863 163.589 99.1309 163.589 99.8223ZM185.684 90.9805V110H180.182V90.9805H185.684ZM179.848 86.0586C179.848 85.2617 180.129 84.6113 180.692 84.1074C181.254 83.5918 181.993 83.334 182.907 83.334C183.821 83.334 184.559 83.5918 185.121 84.1074C185.696 84.6113 185.983 85.2617 185.983 86.0586C185.983 86.8438 185.696 87.4941 185.121 88.0098C184.559 88.5137 183.821 88.7656 182.907 88.7656C181.993 88.7656 181.254 88.5137 180.692 88.0098C180.129 87.4941 179.848 86.8438 179.848 86.0586Z" fill="#E8E7EA"/>
<path fill-rule="evenodd" clip-rule="evenodd" d="M99.5 73C119.658 73 136 56.6584 136 36.5C136 16.3416 119.658 0 99.5 0C79.3416 0 63 16.3416 63 36.5C63 56.6584 79.3416 73 99.5 73Z" fill="#FF4A17"/>
<path d="M92.2003 25.5502V24.0902C92.2003 20.8599 92.2003 18.2502 98.0403 18.2502H100.96C106.8 18.2502 106.8 20.8599 106.8 24.0902V25.5502M103.15 40.1867C103.15 40.1684 103.15 40.1684 103.15 40.1502V38.3252C103.15 36.5002 103.15 36.5002 101.325 36.5002H97.6753C95.8503 36.5002 95.8503 36.5002 95.8503 38.3252V40.2049M103.15 40.1867C103.15 42.1759 103.132 43.8002 99.5003 43.8002C95.8868 43.8002 95.8503 42.1942 95.8503 40.2049M103.15 40.1867C108.078 39.5662 112.896 37.7412 117.112 34.6752M95.8503 40.2049C91.1236 39.6757 86.4881 37.9784 82.3819 35.1679M92.2004 54.7502H106.8C114.137 54.7502 115.451 51.8119 115.834 48.2349L117.203 33.6349C117.696 29.1819 116.418 25.5502 108.625 25.5502H90.3754C82.5826 25.5502 81.3051 29.1819 81.7979 33.6349L83.1666 48.2349C83.5499 51.8119 84.8639 54.7502 92.2004 54.7502Z" stroke="white" stroke-width="1.5" stroke-miterlimit="10" stroke-linecap="round" stroke-linejoin="round"/>
<rect x="188" y="104" width="8" height="6" fill="#FF4A17"/>
</svg>
