<svg width="18" height="22" viewBox="0 0 18 22" fill="none" xmlns="http://www.w3.org/2000/svg">
<path d="M2.47597 12.92L3.1185 13.3069L3.12018 13.304L2.47597 12.92ZM1.32597 14.83L0.683441 14.4431L0.683328 14.4433L1.32597 14.83ZM2.40597 17.76L2.16552 18.4704L2.1683 18.4713L2.40597 17.76ZM15.676 17.76L15.4406 17.0479L15.4383 17.0487L15.676 17.76ZM16.756 14.83L17.3991 14.4441L17.3985 14.4431L16.756 14.83ZM15.606 12.92L14.9562 13.2949L14.9634 13.3069L15.606 12.92ZM10.896 2.26L10.6869 2.98026C10.9613 3.05994 11.2572 2.97673 11.4499 2.76568C11.6425 2.55463 11.6985 2.25242 11.5943 1.98634L10.896 2.26ZM9.93597 2.06L9.84294 2.80421L9.84572 2.80455L9.93597 2.06ZM7.19597 2.26L6.49767 1.98634C6.39338 2.25246 6.44942 2.55472 6.64217 2.76577C6.83491 2.97682 7.13086 3.05997 7.40532 2.98019L7.19597 2.26ZM9.04597 1.22C5.32175 1.22 2.29597 4.24579 2.29597 7.97H3.79597C3.79597 5.07421 6.15018 2.72 9.04597 2.72V1.22ZM2.29597 7.97V10.86H3.79597V7.97H2.29597ZM2.29597 10.86C2.29597 11.0746 2.24739 11.3887 2.15454 11.7231C2.06176 12.0574 1.94147 12.3519 1.83176 12.536L3.12018 13.304C3.32047 12.9681 3.48517 12.5376 3.59989 12.1244C3.71454 11.7113 3.79597 11.2554 3.79597 10.86H2.29597ZM1.83344 12.5331L0.683441 14.4431L1.96849 15.2169L3.11849 13.3069L1.83344 12.5331ZM0.683328 14.4433C0.222291 15.2096 0.126089 16.0692 0.408885 16.8329C0.691354 17.5958 1.32311 18.1853 2.16552 18.4704L2.64641 17.0496C2.18882 16.8947 1.92558 16.6092 1.81555 16.3121C1.70584 16.0158 1.71964 15.6304 1.96861 15.2167L0.683328 14.4433ZM2.1683 18.4713C6.63255 19.9629 11.4494 19.9629 15.9136 18.4713L15.4383 17.0487C11.2826 18.4371 6.79938 18.4371 2.64363 17.0487L2.1683 18.4713ZM15.9114 18.4721C17.5804 17.9203 18.3048 15.9537 17.3991 14.4441L16.1128 15.2159C16.5271 15.9063 16.1915 16.7997 15.4406 17.0479L15.9114 18.4721ZM17.3985 14.4431L16.2485 12.5331L14.9634 13.3069L16.1134 15.2169L17.3985 14.4431ZM16.2556 12.5452C16.1477 12.3582 16.0287 12.0606 15.9368 11.7254C15.8446 11.3893 15.796 11.0749 15.796 10.86H14.296C14.296 11.2551 14.3773 11.7107 14.4902 12.1221C14.6032 12.5344 14.7642 12.9618 14.9563 13.2948L16.2556 12.5452ZM15.796 10.86V7.97H14.296V10.86H15.796ZM15.796 7.97C15.796 4.25579 12.7602 1.22 9.04597 1.22V2.72C11.9318 2.72 14.296 5.08421 14.296 7.97H15.796ZM11.1051 1.53974C10.7625 1.44028 10.4025 1.36105 10.0262 1.31545L9.84572 2.80455C10.1295 2.83895 10.4095 2.89972 10.6869 2.98026L11.1051 1.53974ZM10.029 1.31579C8.9734 1.18384 7.95017 1.25971 6.98661 1.53981L7.40532 2.98019C8.16177 2.76029 8.97853 2.69616 9.84294 2.80421L10.029 1.31579ZM7.89426 2.53366C8.07481 2.07294 8.52311 1.75 9.04597 1.75V0.25C7.88882 0.25 6.89712 0.967064 6.49767 1.98634L7.89426 2.53366ZM9.04597 1.75C9.56882 1.75 10.0171 2.07294 10.1977 2.53366L11.5943 1.98634C11.1948 0.967065 10.2031 0.25 9.04597 0.25V1.75ZM11.296 18.12C11.296 19.3558 10.2818 20.37 9.04597 20.37V21.87C11.1102 21.87 12.796 20.1842 12.796 18.12H11.296ZM9.04597 20.37C8.43345 20.37 7.86182 20.1152 7.4563 19.7097L6.39564 20.7703C7.07011 21.4448 8.01849 21.87 9.04597 21.87V20.37ZM7.4563 19.7097C7.05077 19.3041 6.79597 18.7325 6.79597 18.12H5.29597C5.29597 19.1475 5.72116 20.0959 6.39564 20.7703L7.4563 19.7097Z" fill="#292D32" fill-opacity="0.5"/>
</svg>
