<svg width="71" height="70" viewBox="0 0 71 70" fill="none" xmlns="http://www.w3.org/2000/svg">
<g filter="url(#filter0_d_238_133)">
<ellipse cx="35.5" cy="31" rx="31.5" ry="31" fill="#FF4A17"/>
</g>
<path d="M39.25 24C38.9 24 38.6042 23.8792 38.3625 23.6375C38.1208 23.3958 38 23.1 38 22.75C38 22.4 38.1208 22.1042 38.3625 21.8625C38.6042 21.6208 38.9 21.5 39.25 21.5C39.6 21.5 39.8958 21.6208 40.1375 21.8625C40.3792 22.1042 40.5 22.4 40.5 22.75C40.5 23.1 40.3792 23.3958 40.1375 23.6375C39.8958 23.8792 39.6 24 39.25 24ZM39.25 40.5C38.9 40.5 38.6042 40.3792 38.3625 40.1375C38.1208 39.8958 38 39.6 38 39.25C38 38.9 38.1208 38.6042 38.3625 38.3625C38.6042 38.1208 38.9 38 39.25 38C39.6 38 39.8958 38.1208 40.1375 38.3625C40.3792 38.6042 40.5 38.9 40.5 39.25C40.5 39.6 40.3792 39.8958 40.1375 40.1375C39.8958 40.3792 39.6 40.5 39.25 40.5ZM43.25 27.5C42.9 27.5 42.6042 27.3792 42.3625 27.1375C42.1208 26.8958 42 26.6 42 26.25C42 25.9 42.1208 25.6042 42.3625 25.3625C42.6042 25.1208 42.9 25 43.25 25C43.6 25 43.8958 25.1208 44.1375 25.3625C44.3792 25.6042 44.5 25.9 44.5 26.25C44.5 26.6 44.3792 26.8958 44.1375 27.1375C43.8958 27.3792 43.6 27.5 43.25 27.5ZM43.25 37C42.9 37 42.6042 36.8792 42.3625 36.6375C42.1208 36.3958 42 36.1 42 35.75C42 35.4 42.1208 35.1042 42.3625 34.8625C42.6042 34.6208 42.9 34.5 43.25 34.5C43.6 34.5 43.8958 34.6208 44.1375 34.8625C44.3792 35.1042 44.5 35.4 44.5 35.75C44.5 36.1 44.3792 36.3958 44.1375 36.6375C43.8958 36.8792 43.6 37 43.25 37ZM44.75 32.25C44.4 32.25 44.1042 32.1292 43.8625 31.8875C43.6208 31.6458 43.5 31.35 43.5 31C43.5 30.65 43.6208 30.3542 43.8625 30.1125C44.1042 29.8708 44.4 29.75 44.75 29.75C45.1 29.75 45.3958 29.8708 45.6375 30.1125C45.8792 30.3542 46 30.65 46 31C46 31.35 45.8792 31.6458 45.6375 31.8875C45.3958 32.1292 45.1 32.25 44.75 32.25ZM36 41C34.6167 41 33.3167 40.7375 32.1 40.2125C30.8833 39.6875 29.825 38.975 28.925 38.075C28.025 37.175 27.3125 36.1167 26.7875 34.9C26.2625 33.6833 26 32.3833 26 31C26 29.6167 26.2625 28.3167 26.7875 27.1C27.3125 25.8833 28.025 24.825 28.925 23.925C29.825 23.025 30.8833 22.3125 32.1 21.7875C33.3167 21.2625 34.6167 21 36 21V23C33.7667 23 31.875 23.775 30.325 25.325C28.775 26.875 28 28.7667 28 31C28 33.2333 28.775 35.125 30.325 36.675C31.875 38.225 33.7667 39 36 39V41ZM39.3 35.7L35 31.4V26H37V30.6L40.7 34.3L39.3 35.7Z" fill="white"/>
<defs>
<filter id="filter0_d_238_133" x="0" y="0" width="71" height="70" filterUnits="userSpaceOnUse" color-interpolation-filters="sRGB">
<feFlood flood-opacity="0" result="BackgroundImageFix"/>
<feColorMatrix in="SourceAlpha" type="matrix" values="0 0 0 0 0 0 0 0 0 0 0 0 0 0 0 0 0 0 127 0" result="hardAlpha"/>
<feOffset dy="4"/>
<feGaussianBlur stdDeviation="2"/>
<feComposite in2="hardAlpha" operator="out"/>
<feColorMatrix type="matrix" values="0 0 0 0 0 0 0 0 0 0 0 0 0 0 0 0 0 0 0.25 0"/>
<feBlend mode="normal" in2="BackgroundImageFix" result="effect1_dropShadow_238_133"/>
<feBlend mode="normal" in="SourceGraphic" in2="effect1_dropShadow_238_133" result="shape"/>
</filter>
</defs>
</svg>
